<svg width="256" height="256" viewBox="0 0 256 256" fill="none" xmlns="http://www.w3.org/2000/svg">
<path d="M0 25.6C0 11.4615 11.4615 0 25.6 0H230.4C244.538 0 256 11.4615 256 25.6V230.4C256 244.538 244.538 256 230.4 256H25.6C11.4615 256 0 244.538 0 230.4V25.6Z" fill="#FC6432"/>
<path d="M70.184 162.96C65.704 162.96 61.768 162.128 58.376 160.464C55.048 158.736 52.456 156.336 50.6 153.264C48.808 150.128 47.912 146.448 47.912 142.224V111.696C47.912 107.408 48.808 103.728 50.6 100.656C52.456 97.584 55.048 95.216 58.376 93.552C61.768 91.824 65.704 90.96 70.184 90.96C74.728 90.96 78.632 91.824 81.896 93.552C85.224 95.216 87.816 97.584 89.672 100.656C91.528 103.728 92.456 107.408 92.456 111.696H80.36C80.36 108.368 79.464 105.84 77.672 104.112C75.944 102.384 73.448 101.52 70.184 101.52C66.92 101.52 64.392 102.384 62.6 104.112C60.808 105.84 59.912 108.336 59.912 111.6V142.224C59.912 145.488 60.808 148.016 62.6 149.808C64.392 151.536 66.92 152.4 70.184 152.4C73.448 152.4 75.944 151.536 77.672 149.808C79.464 148.016 80.36 145.488 80.36 142.224H92.456C92.456 146.384 91.528 150.032 89.672 153.168C87.816 156.304 85.224 158.736 81.896 160.464C78.632 162.128 74.728 162.96 70.184 162.96ZM127.363 162.96C122.883 162.96 118.979 162.128 115.651 160.464C112.387 158.736 109.859 156.336 108.067 153.264C106.339 150.128 105.475 146.448 105.475 142.224V111.696C105.475 107.472 106.339 103.824 108.067 100.752C109.859 97.616 112.387 95.216 115.651 93.552C118.979 91.824 122.883 90.96 127.363 90.96C131.907 90.96 135.811 91.824 139.075 93.552C142.339 95.216 144.835 97.616 146.562 100.752C148.354 103.824 149.25 107.44 149.25 111.6V142.224C149.25 146.448 148.354 150.128 146.562 153.264C144.835 156.336 142.339 158.736 139.075 160.464C135.811 162.128 131.907 162.96 127.363 162.96ZM127.363 152.4C130.627 152.4 133.091 151.536 134.755 149.808C136.419 148.016 137.251 145.488 137.251 142.224V111.696C137.251 108.368 136.419 105.84 134.755 104.112C133.091 102.384 130.627 101.52 127.363 101.52C124.099 101.52 121.635 102.384 119.971 104.112C118.307 105.84 117.475 108.368 117.475 111.696V142.224C117.475 145.488 118.307 148.016 119.971 149.808C121.699 151.536 124.163 152.4 127.363 152.4ZM184.925 162.96C180.445 162.96 176.541 162.128 173.213 160.464C169.949 158.736 167.421 156.336 165.629 153.264C163.901 150.128 163.037 146.448 163.037 142.224V111.696C163.037 107.472 163.901 103.824 165.629 100.752C167.421 97.616 169.949 95.216 173.213 93.552C176.541 91.824 180.445 90.96 184.925 90.96C189.469 90.96 193.373 91.824 196.637 93.552C199.901 95.216 202.397 97.616 204.125 100.752C205.917 103.824 206.813 107.44 206.813 111.6V142.224C206.813 146.448 205.917 150.128 204.125 153.264C202.397 156.336 199.901 158.736 196.637 160.464C193.373 162.128 189.469 162.96 184.925 162.96ZM184.925 152.4C188.189 152.4 190.653 151.536 192.317 149.808C193.981 148.016 194.813 145.488 194.813 142.224V111.696C194.813 108.368 193.981 105.84 192.317 104.112C190.653 102.384 188.189 101.52 184.925 101.52C181.661 101.52 179.197 102.384 177.533 104.112C175.869 105.84 175.037 108.368 175.037 111.696V142.224C175.037 145.488 175.869 148.016 177.533 149.808C179.261 151.536 181.725 152.4 184.925 152.4Z" fill="white"/>
</svg>
